{
	"asset":{
		"generator":"Khronos glTF Blender I/O v4.1.63",
		"version":"2.0"
	},
	"scene":0,
	"scenes":[
		{
			"name":"Scene",
			"nodes":[
				0
			]
		}
	],
	"nodes":[
		{
			"mesh":0,
			"name":"17256_Space_Shuttle_Endeavour_v1_NEW",
			"rotation":[
				-0.008549511432647705,
				-0.00010428721725475043,
				0.005185816902667284,
				0.9999500513076782
			],
			"scale":[
				0.0016444659559056163,
				0.0016444659559056163,
				0.0016444660723209381
			]
		}
	],
	"materials":[
		{
			"doubleSided":true,
			"name":"Material.003",
			"pbrMetallicRoughness":{
				"baseColorFactor":[
					0,
					1,
					0.4173411726951599,
					1
				],
				"metallicFactor":0,
				"roughnessFactor":0.5
			}
		}
	],
	"meshes":[
		{
			"name":"17256_Space_Shuttle_Endeavour_v1_NEW.001",
			"primitives":[
				{
					"attributes":{
						"POSITION":0,
						"NORMAL":1,
						"TEXCOORD_0":2
					},
					"indices":3,
					"material":0
				}
			]
		}
	],
	"accessors":[
		{
			"bufferView":0,
			"componentType":5126,
			"count":56171,
			"max":[
				1074.885986328125,
				1180.2972412109375,
				886.506103515625
			],
			"min":[
				-892.690185546875,
				1.8148000240325928,
				-885.2858276367188
			],
			"type":"VEC3"
		},
		{
			"bufferView":1,
			"componentType":5126,
			"count":56171,
			"type":"VEC3"
		},
		{
			"bufferView":2,
			"componentType":5126,
			"count":56171,
			"type":"VEC2"
		},
		{
			"bufferView":3,
			"componentType":5123,
			"count":280272,
			"type":"SCALAR"
		}
	],
	"bufferViews":[
		{
			"buffer":0,
			"byteLength":674052,
			"byteOffset":0,
			"target":34962
		},
		{
			"buffer":0,
			"byteLength":674052,
			"byteOffset":674052,
			"target":34962
		},
		{
			"buffer":0,
			"byteLength":449368,
			"byteOffset":1348104,
			"target":34962
		},
		{
			"buffer":0,
			"byteLength":560544,
			"byteOffset":1797472,
			"target":34963
		}
	],
	"buffers":[
		{
			"byteLength":2358016,
			"uri":"Rocket_Ship1.bin"
		}
	]
}
