{
  "accessors": [
    {
      "bufferView": 2,
      "componentType": 5126,
      "count": 2898,
      "max": [
        17.05500030517578,
        85.01139831542969,
        203.6331024169922
      ],
      "min": [
        -17.24250030517578,
        -15.051600456237793,
        168.28109741210938
      ],
      "type": "VEC3"
    },
    {
      "bufferView": 2,
      "byteOffset": 34776,
      "componentType": 5126,
      "count": 2898,
      "max": [
        0.9999476671218872,
        0.9971514940261841,
        0.9995360970497131
      ],
      "min": [
        -0.9997815489768982,
        -0.998904287815094,
        -0.9996464848518372
      ],
      "type": "VEC3"
    },
    {
      "bufferView": 3,
      "componentType": 5126,
      "count": 2898,
      "max": [
        1.0,
        0.9998834729194641,
        0.9921042323112488,
        1.0
      ],
      "min": [
        -0.9912077188491821,
        -0.9998737573623657,
        -0.9983506798744202,
        -1.0
      ],
      "type": "VEC4"
    },
    {
      "bufferView": 1,
      "componentType": 5126,
      "count": 2898,
      "max": [
        0.9940999746322632,
        -0.005799999926239252
      ],
      "min": [
        0.00139999995008111,
        -0.9911999702453613
      ],
      "type": "VEC2"
    },
    {
      "bufferView": 0,
      "componentType": 5125,
      "count": 14142,
      "type": "SCALAR"
    },
    {
      "bufferView": 2,
      "byteOffset": 69552,
      "componentType": 5126,
      "count": 892,
      "max": [
        82.3927001953125,
        78.99150085449219,
        195.25210571289063
      ],
      "min": [
        -82.30909729003906,
        -22.361900329589844,
        -5.164899826049805
      ],
      "type": "VEC3"
    },
    {
      "bufferView": 2,
      "byteOffset": 80256,
      "componentType": 5126,
      "count": 892,
      "max": [
        0.999863862991333,
        0.9070499539375305,
        0.9989137053489685
      ],
      "min": [
        -0.9998672008514404,
        -0.9977326989173889,
        -0.9999979734420776
      ],
      "type": "VEC3"
    },
    {
      "bufferView": 3,
      "byteOffset": 46368,
      "componentType": 5126,
      "count": 892,
      "max": [
        0.9997677206993103,
        0.9999980330467224,
        0.9977326989173889,
        1.0
      ],
      "min": [
        -1.0,
        -0.9998672604560852,
        -0.9921759963035583,
        -1.0
      ],
      "type": "VEC4"
    },
    {
      "bufferView": 1,
      "byteOffset": 23184,
      "componentType": 5126,
      "count": 892,
      "max": [
        0.7368000149726868,
        -0.00430000014603138
      ],
      "min": [
        0.00279999990016222,
        -0.9965999722480774
      ],
      "type": "VEC2"
    },
    {
      "bufferView": 0,
      "byteOffset": 56568,
      "componentType": 5125,
      "count": 2664,
      "type": "SCALAR"
    },
    {
      "bufferView": 2,
      "byteOffset": 90960,
      "componentType": 5126,
      "count": 1743,
      "max": [
        8.608499526977539,
        6.392000198364258,
        186.43960571289063
      ],
      "min": [
        -8.608499526977539,
        -15.450599670410156,
        165.4449005126953
      ],
      "type": "VEC3"
    },
    {
      "bufferView": 2,
      "byteOffset": 111876,
      "componentType": 5126,
      "count": 1743,
      "max": [
        0.9984661936759949,
        0.9835758805274963,
        0.988294243812561
      ],
      "min": [
        -0.9984661936759949,
        -0.9999372959136963,
        -1.0
      ],
      "type": "VEC3"
    },
    {
      "bufferView": 3,
      "byteOffset": 60640,
      "componentType": 5126,
      "count": 1743,
      "max": [
        1.0,
        0.9996424913406372,
        0.9914563298225403,
        1.0
      ],
      "min": [
        -0.9931627511978149,
        -0.9996339082717896,
        -0.9935036897659302,
        -1.0
      ],
      "type": "VEC4"
    },
    {
      "bufferView": 1,
      "byteOffset": 30320,
      "componentType": 5126,
      "count": 1743,
      "max": [
        0.8676999807357788,
        -0.0012000000569969416
      ],
      "min": [
        0.00430000014603138,
        -0.9150000214576721
      ],
      "type": "VEC2"
    },
    {
      "bufferView": 0,
      "byteOffset": 67224,
      "componentType": 5125,
      "count": 9096,
      "type": "SCALAR"
    },
    {
      "bufferView": 2,
      "byteOffset": 132792,
      "componentType": 5126,
      "count": 3065,
      "max": [
        33.64649963378906,
        59.5349006652832,
        196.14309692382813
      ],
      "min": [
        -35.86439895629883,
        -22.31879997253418,
        137.73069763183594
      ],
      "type": "VEC3"
    },
    {
      "bufferView": 2,
      "byteOffset": 169572,
      "componentType": 5126,
      "count": 3065,
      "max": [
        0.9997170567512512,
        0.9905725717544556,
        0.9993346929550171
      ],
      "min": [
        -0.999914288520813,
        -0.9992853403091431,
        -0.999915361404419
      ],
      "type": "VEC3"
    },
    {
      "bufferView": 3,
      "byteOffset": 88528,
      "componentType": 5126,
      "count": 3065,
      "max": [
        0.9999907612800598,
        0.9989746809005737,
        0.9998939037322998,
        1.0
      ],
      "min": [
        -0.999663770198822,
        -0.9998177886009216,
        -0.999713122844696,
        -1.0
      ],
      "type": "VEC4"
    },
    {
      "bufferView": 1,
      "byteOffset": 44264,
      "componentType": 5126,
      "count": 3065,
      "max": [
        0.9980000257492065,
        -0.0027000000700354576
      ],
      "min": [
        0.01899999938905239,
        -0.9937000274658203
      ],
      "type": "VEC2"
    },
    {
      "bufferView": 0,
      "byteOffset": 103608,
      "componentType": 5125,
      "count": 14649,
      "type": "SCALAR"
    },
    {
      "bufferView": 2,
      "byteOffset": 206352,
      "componentType": 5126,
      "count": 7360,
      "max": [
        109.11509704589844,
        14.562899589538574,
        174.6417999267578
      ],
      "min": [
        -109.1155014038086,
        -25.837099075317383,
        -0.061500001698732376
      ],
      "type": "VEC3"
    },
    {
      "bufferView": 2,
      "byteOffset": 294672,
      "componentType": 5126,
      "count": 7360,
      "max": [
        0.9999961853027344,
        0.9999966621398926,
        0.9999480247497559
      ],
      "min": [
        -0.9998677968978882,
        -0.9999268054962158,
        -0.9999982118606567
      ],
      "type": "VEC3"
    },
    {
      "bufferView": 3,
      "byteOffset": 137568,
      "componentType": 5126,
      "count": 7360,
      "max": [
        0.999954342842102,
        0.9999401569366455,
        0.999996542930603,
        1.0
      ],
      "min": [
        -1.0,
        -0.9999961256980896,
        -0.9999198317527771,
        -1.0
      ],
      "type": "VEC4"
    },
    {
      "bufferView": 1,
      "byteOffset": 68784,
      "componentType": 5126,
      "count": 7360,
      "max": [
        0.9980000257492065,
        -0.0035000001080334187
      ],
      "min": [
        0.003000000026077032,
        -0.9961000084877014
      ],
      "type": "VEC2"
    },
    {
      "bufferView": 0,
      "byteOffset": 162204,
      "componentType": 5125,
      "count": 30747,
      "type": "SCALAR"
    },
    {
      "bufferView": 2,
      "byteOffset": 382992,
      "componentType": 5126,
      "count": 230,
      "max": [
        5.181399822235107,
        -9.361499786376953,
        183.73609924316406
      ],
      "min": [
        -5.181399822235107,
        -12.123299598693848,
        179.74130249023438
      ],
      "type": "VEC3"
    },
    {
      "bufferView": 2,
      "byteOffset": 385752,
      "componentType": 5126,
      "count": 230,
      "max": [
        1.0,
        0.19519302248954773,
        1.0
      ],
      "min": [
        -1.0,
        -1.0,
        -1.0
      ],
      "type": "VEC3"
    },
    {
      "bufferView": 1,
      "byteOffset": 127664,
      "componentType": 5126,
      "count": 230,
      "max": [
        0.3953000009059906,
        -0.15320000052452087
      ],
      "min": [
        0.3644999861717224,
        -0.21330000460147858
      ],
      "type": "VEC2"
    },
    {
      "bufferView": 0,
      "byteOffset": 285192,
      "componentType": 5125,
      "count": 1152,
      "type": "SCALAR"
    }
  ],
  "asset": {
    "extras": {
      "author": "loriscangini (https://sketchfab.com/loriscangini)",
      "license": "CC-BY-NC-4.0 (http://creativecommons.org/licenses/by-nc/4.0/)",
      "source": "https://sketchfab.com/3d-models/kars-25758f82847d48589590c7972731d989",
      "title": "Kars"
    },
    "generator": "Sketchfab-12.67.0",
    "version": "2.0"
  },
  "bufferViews": [
    {
      "buffer": 0,
      "byteLength": 289800,
      "name": "floatBufferViews",
      "target": 34963
    },
    {
      "buffer": 0,
      "byteLength": 129504,
      "byteOffset": 289800,
      "byteStride": 8,
      "name": "floatBufferViews",
      "target": 34962
    },
    {
      "buffer": 0,
      "byteLength": 388512,
      "byteOffset": 419304,
      "byteStride": 12,
      "name": "floatBufferViews",
      "target": 34962
    },
    {
      "buffer": 0,
      "byteLength": 255328,
      "byteOffset": 807816,
      "byteStride": 16,
      "name": "floatBufferViews",
      "target": 34962
    }
  ],
  "buffers": [
    {
      "byteLength": 1063144,
      "uri": "scene.bin"
    }
  ],
  "images": [
    {
      "uri": "textures/C__Users_Loris_Desktop_Kars___n_baseColor.png"
    },
    {
      "uri": "textures/C__Users_Loris_Desktop_Kars___n_normal.png"
    },
    {
      "uri": "textures/Material__2_baseColor.png"
    },
    {
      "uri": "textures/Material__2_normal.png"
    },
    {
      "uri": "textures/Material__3_baseColor.png"
    }
  ],
  "materials": [
    {
      "doubleSided": true,
      "emissiveTexture": {
        "index": 0
      },
      "name": "C__Users_Loris_Desktop_Kars___n",
      "normalTexture": {
        "index": 1
      },
      "pbrMetallicRoughness": {
        "baseColorTexture": {
          "index": 0
        },
        "metallicFactor": 0.0,
        "roughnessFactor": 0.6
      }
    },
    {
      "alphaMode": "BLEND",
      "doubleSided": true,
      "emissiveTexture": {
        "index": 0
      },
      "name": "Material__2",
      "normalTexture": {
        "index": 3
      },
      "pbrMetallicRoughness": {
        "baseColorFactor": [
          1.0,
          1.0,
          1.0,
          0.0
        ],
        "baseColorTexture": {
          "index": 2
        },
        "metallicFactor": 0.0,
        "roughnessFactor": 0.6
      }
    },
    {
      "doubleSided": true,
      "emissiveTexture": {
        "index": 4
      },
      "name": "Material__3",
      "pbrMetallicRoughness": {
        "baseColorTexture": {
          "index": 4
        },
        "metallicFactor": 0.0,
        "roughnessFactor": 0.6
      }
    }
  ],
  "meshes": [
    {
      "name": "Object_0",
      "primitives": [
        {
          "attributes": {
            "NORMAL": 1,
            "POSITION": 0,
            "TANGENT": 2,
            "TEXCOORD_0": 3
          },
          "indices": 4,
          "material": 1,
          "mode": 4
        }
      ]
    },
    {
      "name": "Object_1",
      "primitives": [
        {
          "attributes": {
            "NORMAL": 6,
            "POSITION": 5,
            "TANGENT": 7,
            "TEXCOORD_0": 8
          },
          "indices": 9,
          "material": 0,
          "mode": 4
        }
      ]
    },
    {
      "name": "Object_2",
      "primitives": [
        {
          "attributes": {
            "NORMAL": 11,
            "POSITION": 10,
            "TANGENT": 12,
            "TEXCOORD_0": 13
          },
          "indices": 14,
          "material": 0,
          "mode": 4
        }
      ]
    },
    {
      "name": "Object_3",
      "primitives": [
        {
          "attributes": {
            "NORMAL": 16,
            "POSITION": 15,
            "TANGENT": 17,
            "TEXCOORD_0": 18
          },
          "indices": 19,
          "material": 0,
          "mode": 4
        }
      ]
    },
    {
      "name": "Object_4",
      "primitives": [
        {
          "attributes": {
            "NORMAL": 21,
            "POSITION": 20,
            "TANGENT": 22,
            "TEXCOORD_0": 23
          },
          "indices": 24,
          "material": 0,
          "mode": 4
        }
      ]
    },
    {
      "name": "Object_5",
      "primitives": [
        {
          "attributes": {
            "NORMAL": 26,
            "POSITION": 25,
            "TEXCOORD_0": 27
          },
          "indices": 28,
          "material": 2,
          "mode": 4
        }
      ]
    }
  ],
  "nodes": [
    {
      "children": [
        1
      ],
      "matrix": [
        1.0,
        0.0,
        0.0,
        0.0,
        0.0,
        2.220446049250313e-16,
        -1.0,
        0.0,
        0.0,
        1.0,
        2.220446049250313e-16,
        0.0,
        0.0,
        0.0,
        0.0,
        1.0
      ],
      "name": "Sketchfab_model"
    },
    {
      "children": [
        2,
        3,
        4,
        5,
        6,
        7
      ],
      "name": "Kars.obj.cleaner"
    },
    {
      "mesh": 0,
      "name": "Object_2"
    },
    {
      "mesh": 1,
      "name": "Object_3"
    },
    {
      "mesh": 2,
      "name": "Object_4"
    },
    {
      "mesh": 3,
      "name": "Object_5"
    },
    {
      "mesh": 4,
      "name": "Object_6"
    },
    {
      "mesh": 5,
      "name": "Object_7"
    }
  ],
  "samplers": [
    {
      "magFilter": 9729,
      "minFilter": 9987,
      "wrapS": 10497,
      "wrapT": 10497
    }
  ],
  "scene": 0,
  "scenes": [
    {
      "name": "Sketchfab_Scene",
      "nodes": [
        0
      ]
    }
  ],
  "textures": [
    {
      "sampler": 0,
      "source": 0
    },
    {
      "sampler": 0,
      "source": 1
    },
    {
      "sampler": 0,
      "source": 2
    },
    {
      "sampler": 0,
      "source": 3
    },
    {
      "sampler": 0,
      "source": 4
    }
  ]
}
